<svg width="30" height="30" viewBox="0 0 30 30" fill="none" xmlns="http://www.w3.org/2000/svg">
<path fill-rule="evenodd" clip-rule="evenodd" d="M6.28571 0C6.71943 0 7.07143 0.353571 7.07143 0.785714V1.57143H14.9286V0.785714C14.9286 0.353571 15.2806 0 15.7143 0C16.148 0 16.5 0.353571 16.5 0.785714V1.57143H18.0714C20.2408 1.57143 22 3.33143 22 5.5V18.0714C22 20.24 20.2408 22 18.0714 22H3.92857C1.75921 22 0 20.24 0 18.0714V5.5C0 3.33143 1.75921 1.57143 3.92857 1.57143H5.5V0.785714C5.5 0.353571 5.852 0 6.28571 0ZM5.5 3.14286H3.92857C2.62664 3.14286 1.57143 4.19571 1.57143 5.5V7.07143H20.4286V5.5C20.4286 4.19571 19.3734 3.14286 18.0714 3.14286H16.5V3.92857C16.5 4.36071 16.148 4.71429 15.7143 4.71429C15.2806 4.71429 14.9286 4.36071 14.9286 3.92857V3.14286H7.07143V3.92857C7.07143 4.36071 6.71943 4.71429 6.28571 4.71429C5.852 4.71429 5.5 4.36071 5.5 3.92857V3.14286ZM20.4286 8.64286H1.57143V18.0714C1.57143 19.3757 2.62664 20.4286 3.92857 20.4286H18.0714C19.3734 20.4286 20.4286 19.3757 20.4286 18.0714V8.64286ZM4.71429 12.5714C4.71429 12.1393 5.06629 11.7857 5.5 11.7857H7.07143C7.50514 11.7857 7.85714 12.1393 7.85714 12.5714C7.85714 13.0036 7.50514 13.3571 7.07143 13.3571H5.5C5.06629 13.3571 4.71429 13.0036 4.71429 12.5714ZM9.42857 12.5714C9.42857 12.1393 9.78057 11.7857 10.2143 11.7857H11.7857C12.2194 11.7857 12.5714 12.1393 12.5714 12.5714C12.5714 13.0036 12.2194 13.3571 11.7857 13.3571H10.2143C9.78057 13.3571 9.42857 13.0036 9.42857 12.5714ZM14.1429 12.5714C14.1429 12.1393 14.4949 11.7857 14.9286 11.7857H16.5C16.9337 11.7857 17.2857 12.1393 17.2857 12.5714C17.2857 13.0036 16.9337 13.3571 16.5 13.3571H14.9286C14.4949 13.3571 14.1429 13.0036 14.1429 12.5714ZM4.71429 16.5C4.71429 16.0679 5.06629 15.7143 5.5 15.7143H7.07143C7.50514 15.7143 7.85714 16.0679 7.85714 16.5C7.85714 16.9321 7.50514 17.2857 7.07143 17.2857H5.5C5.06629 17.2857 4.71429 16.9321 4.71429 16.5ZM9.42857 16.5C9.42857 16.0679 9.78057 15.7143 10.2143 15.7143H11.7857C12.2194 15.7143 12.5714 16.0679 12.5714 16.5C12.5714 16.9321 12.2194 17.2857 11.7857 17.2857H10.2143C9.78057 17.2857 9.42857 16.9321 9.42857 16.5ZM14.1429 16.5C14.1429 16.0679 14.4949 15.7143 14.9286 15.7143H16.5C16.9337 15.7143 17.2857 16.0679 17.2857 16.5C17.2857 16.9321 16.9337 17.2857 16.5 17.2857H14.9286C14.4949 17.2857 14.1429 16.9321 14.1429 16.5Z" fill="black"/>
</svg>
