<svg width="22" height="23" viewBox="0 0 22 23" fill="none" xmlns="http://www.w3.org/2000/svg">
<path fill-rule="evenodd" clip-rule="evenodd" d="M10.1901 1.02144C10.8432 0.467299 11.8014 0.467299 12.4545 1.02144L21.2045 8.44569C21.5964 8.77819 21.8223 9.26614 21.8223 9.78008V20.75C21.8223 21.7165 21.0388 22.5 20.0723 22.5H13.364C12.8807 22.5 12.489 22.1082 12.489 21.625V14.3333H10.1557V21.625C10.1557 22.1082 9.76391 22.5 9.28066 22.5H2.57233C1.60583 22.5 0.822327 21.7165 0.822327 20.75V9.78008C0.822327 9.26614 1.04824 8.77819 1.44012 8.44569L10.1901 1.02144ZM11.3223 2.35583L2.57233 9.78008L2.57233 20.75H8.40566V13.4583C8.40566 12.9751 8.79741 12.5833 9.28066 12.5833H13.364C13.8472 12.5833 14.239 12.9751 14.239 13.4583V20.75H20.0723V9.78008L11.3223 2.35583Z" fill="black"/>
</svg>
