<svg width="22" height="22" viewBox="0 0 22 22" fill="none" xmlns="http://www.w3.org/2000/svg">
<path fill-rule="evenodd" clip-rule="evenodd" d="M23.4175 3.12821C23.4175 1.73538 22.3273 0.606934 20.9644 0.606934C19.329 0.606934 18.2387 1.73538 18.2387 3.12821V18.2668H2.70216C1.33931 18.2668 0.249023 19.3952 0.249023 20.7881C0.249023 22.1836 1.33931 23.3121 2.70216 23.3121H18.2387V38.8077C18.2387 40.2006 19.329 41.329 20.9644 41.329C22.3273 41.329 23.4175 40.2006 23.4175 38.8077V23.3121H38.4089C39.7718 23.3121 41.1347 22.1836 41.1347 20.7881C41.1347 19.3952 39.7718 18.2668 38.4089 18.2668H23.4175V3.12821Z" fill="black"/>
</svg>
