<svg width="29" height="28" viewBox="0 0 29 28" fill="none" xmlns="http://www.w3.org/2000/svg">
<path d="M28.0752 0H0.848053V28H28.0752V0Z"/>
<path fill-rule="evenodd" clip-rule="evenodd" d="M11.9091 8.75V6.125C11.9091 4.6725 10.7689 3.5 9.35654 3.5H6.80399C5.39158 3.5 4.25144 4.6725 4.25144 6.125V8.75C4.25144 10.2025 5.39158 11.375 6.80399 11.375H9.35654C10.7689 11.375 11.9091 10.2025 11.9091 8.75ZM13.6108 6.125V8.75C13.6108 11.165 11.7049 13.125 9.35654 13.125H6.80399C4.45565 13.125 2.54974 11.165 2.54974 8.75V6.125C2.54974 3.71 4.45565 1.75 6.80399 1.75H9.35654C11.7049 1.75 13.6108 3.71 13.6108 6.125Z" fill="#8F9090"/>
<path fill-rule="evenodd" clip-rule="evenodd" d="M24.6718 8.75V6.125C24.6718 4.6725 23.5317 3.5 22.1193 3.5H19.5667C18.1543 3.5 17.0142 4.6725 17.0142 6.125V8.75C17.0142 10.2025 18.1543 11.375 19.5667 11.375H22.1193C23.5317 11.375 24.6718 10.2025 24.6718 8.75ZM26.3735 6.125V8.75C26.3735 11.165 24.4676 13.125 22.1193 13.125H19.5667C17.2184 13.125 15.3125 11.165 15.3125 8.75V6.125C15.3125 3.71 17.2184 1.75 19.5667 1.75H22.1193C24.4676 1.75 26.3735 3.71 26.3735 6.125Z" fill="#8F9090"/>
<path fill-rule="evenodd" clip-rule="evenodd" d="M11.9091 21.875V19.25C11.9091 17.7975 10.7689 16.625 9.35654 16.625H6.80399C5.39158 16.625 4.25144 17.7975 4.25144 19.25V21.875C4.25144 23.3275 5.39158 24.5 6.80399 24.5H9.35654C10.7689 24.5 11.9091 23.3275 11.9091 21.875ZM13.6108 19.25V21.875C13.6108 24.29 11.7049 26.25 9.35654 26.25H6.80399C4.45565 26.25 2.54974 24.29 2.54974 21.875V19.25C2.54974 16.835 4.45565 14.875 6.80399 14.875H9.35654C11.7049 14.875 13.6108 16.835 13.6108 19.25Z" fill="#8F9090"/>
<path fill-rule="evenodd" clip-rule="evenodd" d="M24.6718 21.875V19.25C24.6718 17.7975 23.5317 16.625 22.1193 16.625H19.5667C18.1543 16.625 17.0142 17.7975 17.0142 19.25V21.875C17.0142 23.3275 18.1543 24.5 19.5667 24.5H22.1193C23.5317 24.5 24.6718 23.3275 24.6718 21.875ZM26.3735 19.25V21.875C26.3735 24.29 24.4676 26.25 22.1193 26.25H19.5667C17.2184 26.25 15.3125 24.29 15.3125 21.875V19.25C15.3125 16.835 17.2184 14.875 19.5667 14.875H22.1193C24.4676 14.875 26.3735 16.835 26.3735 19.25Z" fill="#8F9090"/>
</svg>
