<svg width="21" height="24" viewBox="0 0 21 24" fill="none" xmlns="http://www.w3.org/2000/svg">
<path fill-rule="evenodd" clip-rule="evenodd" d="M10.4366 0.916626C6.99061 0.916626 4.19711 3.78948 4.19711 7.33329C4.19711 9.53767 5.27799 11.4824 6.92444 12.6376C3.10747 14.0755 0.357998 17.7901 0.230883 22.1823C0.216904 22.6653 0.586341 23.0685 1.05604 23.0829C1.52575 23.0973 1.91785 22.7174 1.93183 22.2343C2.06812 17.525 5.82377 13.75 10.4365 13.75C15.0492 13.75 18.8048 17.525 18.9411 22.2343C18.9551 22.7174 19.3472 23.0973 19.8169 23.0829C20.2866 23.0685 20.6561 22.6653 20.6421 22.1823C20.515 17.7901 17.7656 14.0756 13.9487 12.6377C15.5952 11.4825 16.6761 9.5377 16.6761 7.33329C16.6761 3.78948 13.8826 0.916626 10.4366 0.916626ZM5.89881 7.33329C5.89881 4.75595 7.93046 2.66663 10.4366 2.66663C12.9427 2.66663 14.9744 4.75595 14.9744 7.33329C14.9744 9.91063 12.9427 12 10.4366 12C7.93046 12 5.89881 9.91063 5.89881 7.33329Z" fill="#8F9090"/>
</svg>
